<?xml version="1.0" standalone="no"?>
<!DOCTYPE svg PUBLIC "-//W3C//DTD SVG 20010904//EN"
 "http://www.w3.org/TR/2001/REC-SVG-20010904/DTD/svg10.dtd">
<svg version="1.0" xmlns="http://www.w3.org/2000/svg"
 width="1166.000000pt" height="1125.000000pt" viewBox="0 0 1166.000000 1125.000000"
 preserveAspectRatio="xMidYMid meet">

<g transform="translate(0.000000,1125.000000) scale(0.100000,-0.100000)"
fill="#000000" stroke="none">
<path d="M5455 11229 c-362 -21 -751 -83 -1130 -180 -238 -61 -278 -73 -268
-83 4 -4 0 -4 -8 -1 -43 16 -804 -285 -782 -310 5 -4 3 -5 -4 -1 -23 13 -405
-191 -648 -347 -169 -108 -486 -340 -580 -424 -12 -10 -50 -43 -85 -72 -36
-30 -87 -76 -115 -102 -27 -26 -85 -80 -127 -119 -43 -40 -75 -77 -71 -83 3
-5 1 -7 -4 -4 -10 7 -35 -18 -199 -199 -160 -176 -403 -485 -479 -610 -11 -17
-37 -58 -59 -91 -116 -174 -197 -315 -191 -331 3 -7 1 -10 -5 -7 -12 7 -210
-392 -283 -572 -290 -715 -423 -1438 -403 -2203 11 -449 60 -803 167 -1220 58
-224 69 -261 80 -255 5 3 6 0 3 -8 -7 -19 46 -178 133 -402 75 -191 173 -396
186 -388 6 3 7 1 3 -6 -15 -23 189 -386 357 -636 203 -303 550 -727 580 -708
5 3 7 1 4 -4 -9 -14 122 -155 135 -146 6 3 8 1 4 -5 -7 -11 136 -147 157 -147
6 -1 11 -6 10 -12 -3 -16 137 -134 149 -127 6 4 8 3 5 -3 -3 -5 26 -37 66 -70
89 -75 350 -271 403 -303 21 -13 41 -26 44 -29 30 -34 249 -163 262 -155 6 4
8 3 4 -4 -6 -10 101 -79 117 -74 4 1 7 -2 7 -7 0 -10 441 -233 555 -280 44
-18 94 -39 110 -46 249 -108 930 -316 988 -301 9 2 15 1 13 -3 -9 -14 374 -80
609 -105 1025 -112 2066 39 3000 434 167 70 395 182 389 191 -3 5 1 7 8 4 18
-7 334 170 330 185 -1 6 2 9 7 6 14 -9 42 5 34 17 -3 6 -1 7 5 3 6 -4 24 2 39
12 16 11 71 47 123 82 181 120 279 193 273 203 -3 6 -1 7 6 3 25 -16 509 393
494 417 -4 6 -1 7 7 2 21 -13 318 298 533 558 18 21 31 45 31 52 -1 8 3 13 10
12 6 -1 10 4 8 11 -1 6 2 11 7 10 13 -4 123 141 116 153 -4 5 -1 8 5 7 17 -4
245 337 340 507 93 168 131 246 124 256 -4 7 -3 9 3 6 6 -4 34 45 66 111 77
163 93 200 144 331 143 370 225 655 293 1021 26 139 34 190 55 362 32 263 43
654 26 938 -35 581 -157 1138 -365 1670 -105 265 -255 577 -271 563 -4 -5 -5
-2 -1 5 8 13 -25 76 -134 257 -99 164 -152 245 -162 245 -4 0 -8 6 -8 13 0 36
-363 502 -382 491 -7 -4 -8 -2 -4 5 5 7 -11 32 -40 64 -188 204 -239 255 -247
250 -6 -3 -7 -2 -4 4 8 12 -242 249 -260 247 -8 -1 -12 1 -9 4 7 7 -44 62 -56
62 -5 0 -6 -4 -3 -10 3 -6 -1 -7 -10 -3 -13 5 -14 7 -3 14 12 8 4 13 -15 10
-5 -1 -6 3 -3 8 5 8 -98 96 -241 204 -63 48 -80 57 -67 35 4 -8 3 -10 -2 -5
-5 5 -9 13 -9 19 0 17 -195 149 -207 142 -7 -5 -8 -2 -3 6 6 10 4 12 -9 7 -9
-4 -15 -3 -12 2 6 9 -134 104 -219 150 -22 12 -62 35 -88 51 -27 17 -53 27
-59 24 -6 -4 -8 -2 -5 3 15 24 -706 364 -735 347 -7 -4 -10 -3 -5 1 10 11 -16
22 -245 99 -236 79 -454 140 -474 132 -8 -3 -13 -2 -10 3 3 5 -7 11 -22 15
-654 143 -1194 190 -1797 155z m890 -153 c242 -22 310 -32 560 -77 208 -37
503 -112 740 -186 212 -67 552 -206 774 -318 73 -36 137 -63 143 -59 6 4 8 3
5 -3 -4 -6 20 -25 56 -43 34 -17 99 -54 144 -81 46 -28 88 -47 94 -43 8 5 9 3
4 -6 -6 -10 -4 -12 9 -7 9 4 15 3 12 -2 -3 -4 36 -34 86 -67 51 -32 133 -88
183 -123 49 -35 95 -64 102 -64 7 0 10 -4 8 -7 -3 -4 12 -19 33 -33 20 -13 91
-68 156 -120 66 -53 122 -95 125 -94 3 1 6 -1 6 -4 0 -15 30 -39 42 -35 8 3
12 2 9 -3 -7 -11 179 -183 188 -173 4 4 6 2 4 -3 -2 -6 35 -49 82 -96 47 -46
114 -115 148 -152 35 -37 69 -64 75 -60 6 3 7 1 3 -6 -8 -12 70 -108 85 -104
5 2 8 -1 6 -6 -4 -15 104 -141 116 -134 6 3 7 1 3 -6 -8 -13 42 -78 56 -73 5
1 7 -1 5 -5 -3 -5 24 -49 60 -98 80 -111 267 -394 276 -418 4 -11 12 -15 18
-11 7 4 9 3 6 -3 -10 -15 42 -105 55 -97 6 4 8 2 5 -4 -10 -15 3 -43 16 -35 6
3 7 1 3 -5 -10 -16 32 -94 46 -86 6 4 8 3 5 -3 -4 -6 22 -69 57 -139 35 -71
72 -148 81 -171 10 -23 23 -39 28 -36 6 3 7 1 3 -5 -4 -6 7 -44 24 -84 181
-421 310 -900 375 -1388 124 -925 -15 -1910 -393 -2780 -101 -233 -252 -520
-384 -728 -43 -68 -75 -129 -71 -134 3 -6 1 -8 -4 -5 -6 4 -23 -12 -39 -36
-16 -23 -66 -93 -112 -154 -49 -66 -80 -118 -76 -124 4 -7 3 -9 -4 -5 -6 4
-42 -33 -85 -86 -42 -51 -107 -129 -145 -173 -39 -44 -68 -84 -65 -89 4 -5 2
-6 -4 -3 -14 9 -126 -110 -117 -124 4 -7 3 -9 -4 -5 -13 8 -63 -44 -55 -57 3
-6 1 -7 -6 -3 -13 9 -131 -100 -128 -118 1 -5 -5 -10 -13 -11 -8 -1 -14 -6
-12 -13 1 -7 -2 -11 -7 -10 -5 2 -30 -14 -56 -36 -36 -29 -44 -41 -33 -48 10
-7 9 -8 -4 -6 -23 4 -240 -170 -232 -184 4 -7 2 -8 -5 -4 -9 6 -83 -43 -111
-74 -3 -3 -18 -13 -33 -23 -15 -10 -25 -23 -21 -29 4 -6 3 -8 -4 -5 -5 4 -79
-39 -164 -96 -137 -91 -320 -205 -433 -267 -158 -88 -566 -280 -594 -280 -7 0
-9 -5 -5 -12 4 -6 3 -8 -3 -5 -5 4 -50 -10 -99 -29 -103 -41 -396 -140 -469
-159 -27 -7 -84 -22 -125 -34 -148 -41 -333 -81 -502 -110 -961 -164 -1902
-100 -2813 191 -154 49 -389 136 -475 175 -30 14 -73 32 -95 41 -22 9 -134 63
-250 121 -115 58 -216 105 -222 104 -7 0 -11 3 -8 7 2 4 -13 16 -33 27 -20 12
-55 31 -77 44 -22 12 -49 27 -60 33 -11 6 -35 21 -53 34 -18 13 -37 20 -44 16
-7 -4 -10 -3 -5 1 9 11 -103 86 -117 78 -6 -3 -8 -3 -4 2 10 10 -82 76 -95 68
-6 -3 -7 -1 -4 4 8 13 -20 26 -35 16 -6 -3 -8 -1 -4 5 8 13 -70 76 -84 67 -6
-4 -9 -2 -8 3 2 5 -24 30 -57 56 -33 26 -76 59 -95 75 -19 16 -68 56 -109 89
-41 34 -79 58 -84 55 -6 -3 -7 -1 -3 5 6 10 -117 127 -135 127 -5 0 -9 4 -8 8
2 16 -54 67 -70 65 -9 -2 -15 3 -14 9 4 19 -39 64 -55 58 -7 -2 -10 0 -7 5 6
10 -30 51 -39 44 -3 -2 -4 -1 -1 3 8 10 -86 103 -97 97 -5 -3 -7 -2 -6 3 5 13
-53 83 -63 77 -5 -3 -8 -1 -7 4 2 5 -21 37 -51 72 -30 34 -84 99 -119 144 -36
44 -69 83 -74 84 -4 2 -8 9 -8 17 0 7 -7 18 -16 25 -8 8 -63 82 -121 166 -58
85 -110 151 -116 147 -6 -3 -7 -1 -3 5 7 12 -17 56 -26 47 -2 -3 -5 1 -5 9 0
8 -20 47 -45 87 -254 417 -474 934 -601 1414 -51 193 -65 258 -102 479 -85
511 -96 994 -34 1506 94 780 354 1513 777 2195 74 119 280 408 353 495 33 39
57 70 55 70 -3 0 8 12 22 28 15 15 42 46 60 68 18 23 48 58 68 78 19 20 32 41
29 46 -4 6 -2 9 3 8 11 -4 368 352 364 364 -1 5 2 7 8 3 6 -3 45 25 88 63 160
144 528 424 638 486 16 9 67 41 114 71 47 31 99 63 117 72 18 9 29 21 26 26
-3 6 -1 7 5 4 14 -9 43 3 36 14 -3 5 -2 8 3 7 4 -2 107 47 228 108 717 363
1427 558 2257 619 224 17 663 12 903 -9z m-4190 -1165 c3 -5 2 -12 -3 -15 -5
-3 -9 1 -9 9 0 17 3 19 12 6z m75 -45 c0 -2 -7 -7 -16 -10 -8 -3 -12 -2 -9 4
6 10 25 14 25 6z m-550 -351 c0 -2 -6 -8 -13 -14 -10 -8 -14 -7 -14 2 0 8 6
14 14 14 7 0 13 -1 13 -2z m8240 -31 c0 -8 -19 -13 -24 -6 -3 5 1 9 9 9 8 0
15 -2 15 -3z m77 -89 c0 -8 -4 -12 -9 -9 -5 3 -6 10 -3 15 9 13 12 11 12 -6z
m-8532 -7434 c3 -5 2 -12 -3 -15 -5 -3 -9 1 -9 9 0 17 3 19 12 6z m16 -34
c-10 -9 -11 -8 -5 6 3 10 9 15 12 12 3 -3 0 -11 -7 -18z m192 -132 c-3 -9 -8
-14 -10 -11 -3 3 -2 9 2 15 9 16 15 13 8 -4z"/>
<path d="M5060 10736 c-36 -7 -81 -20 -100 -29 -50 -25 -92 -65 -84 -79 4 -7
3 -8 -4 -4 -17 10 -57 -59 -81 -138 -27 -87 -27 -209 -2 -331 25 -121 87 -245
114 -228 6 3 7 1 3 -5 -9 -16 47 -66 104 -95 37 -18 62 -22 145 -22 98 0 171
17 159 36 -3 5 1 6 9 3 18 -6 79 44 70 58 -3 6 -1 8 4 5 23 -14 75 73 99 165
25 96 15 277 -20 383 -73 216 -221 316 -416 281z m162 -169 c65 -39 100 -99
123 -207 19 -89 19 -203 1 -263 -7 -25 -11 -49 -7 -53 3 -4 1 -4 -5 -1 -6 3
-17 -5 -25 -19 -36 -67 -166 -97 -237 -54 -18 11 -38 17 -44 14 -6 -4 -8 -3
-5 3 8 13 -17 36 -28 25 -5 -4 -5 -2 -2 4 4 7 -5 32 -18 57 -48 85 -70 267
-44 362 15 56 56 113 98 135 53 28 145 26 193 -3z"/>
<path d="M6540 10730 c-39 -17 -91 -60 -84 -71 3 -5 0 -8 -7 -7 -7 2 -24 -17
-38 -42 -21 -38 -26 -58 -26 -125 0 -69 4 -86 27 -126 37 -64 72 -91 194 -151
115 -57 143 -78 145 -111 6 -106 -37 -152 -141 -152 -99 0 -155 49 -167 144
-6 55 -8 56 -97 60 l-58 3 7 -69 c14 -135 63 -212 163 -256 112 -50 240 -47
320 6 51 35 96 93 87 114 -2 8 -1 11 5 8 14 -9 30 63 30 135 0 53 -6 77 -28
120 -16 30 -34 54 -40 52 -7 -1 -11 3 -10 10 2 7 -7 17 -19 23 -13 5 -23 13
-23 18 0 4 -4 5 -10 2 -5 -3 -10 -1 -10 5 0 6 -4 8 -10 5 -5 -3 -10 -2 -10 3
0 5 -43 31 -96 58 -126 65 -152 109 -99 172 43 51 130 54 199 7 19 -13 36 -21
38 -19 3 2 5 -4 5 -14 -1 -9 0 -34 1 -54 l2 -37 58 -6 c31 -4 65 -9 75 -11 15
-5 17 2 17 54 0 107 -55 189 -155 233 -56 25 -204 36 -245 19z"/>
<path d="M7566 10511 c-12 -19 -47 -123 -43 -127 2 -2 49 -22 103 -43 54 -22
98 -44 97 -50 -2 -6 -46 -122 -99 -258 -147 -377 -174 -447 -171 -449 5 -4
131 -53 132 -51 1 1 14 36 29 77 16 41 67 171 113 289 119 302 134 342 128
351 -3 5 23 -3 57 -17 35 -13 86 -33 114 -43 l52 -18 20 51 c11 29 23 59 27
68 5 13 -4 21 -39 34 -24 9 -50 14 -57 10 -7 -5 -10 -4 -6 2 4 6 -25 22 -71
38 -42 15 -115 42 -162 61 -174 67 -220 83 -224 75z"/>
<path d="M4058 10488 c-32 -11 -58 -25 -58 -31 0 -23 178 -549 182 -540 3 4 3
2 2 -5 -2 -7 19 -82 46 -167 l51 -154 67 24 c37 12 66 27 66 31 -2 12 -252
781 -268 824 -8 19 -17 35 -22 36 -5 1 -35 -7 -66 -18z"/>
<path d="M3240 10119 c-80 -16 -208 -89 -194 -111 4 -6 3 -8 -3 -5 -15 9 -49
-31 -75 -88 -20 -43 -23 -66 -22 -155 0 -96 3 -112 34 -185 41 -97 59 -127 73
-118 6 3 7 1 3 -6 -19 -29 116 -166 207 -210 108 -53 221 -51 327 7 85 46 176
149 205 232 13 36 13 45 -2 75 -9 19 -21 31 -26 28 -6 -3 -7 -1 -3 5 5 8 -106
223 -130 250 -7 9 -73 -31 -67 -41 3 -6 1 -7 -5 -3 -11 6 -54 -15 -169 -81
l-43 -25 22 -41 c34 -68 49 -86 64 -80 8 3 11 10 7 17 -3 6 -2 8 2 3 5 -4 32
6 62 23 29 16 57 30 62 30 12 0 61 -84 61 -105 0 -49 -71 -137 -134 -166 -109
-50 -222 3 -317 148 -88 136 -112 253 -69 337 10 22 17 43 14 48 -3 5 -2 8 3
7 17 -4 43 14 36 25 -3 6 -3 8 1 4 4 -3 28 3 53 14 57 25 116 18 170 -21 l39
-28 54 49 55 50 -45 40 c-75 68 -160 94 -250 77z"/>
<path d="M7827 9534 c-15 -30 -24 -60 -21 -66 4 -6 3 -8 -3 -5 -6 4 -14 0 -17
-9 -3 -8 -2 -13 3 -9 5 3 11 1 13 -4 1 -4 26 -20 54 -34 l50 -25 38 75 c29 59
34 78 24 84 -7 5 -19 7 -26 4 -7 -3 -11 -1 -8 3 5 8 -55 42 -72 42 -4 0 -20
-25 -35 -56z"/>
<path d="M5495 9530 c-414 -36 -674 -84 -1035 -192 -224 -67 -564 -203 -553
-221 3 -6 1 -7 -6 -3 -15 10 -262 -114 -254 -127 3 -6 1 -7 -5 -3 -6 4 -48
-15 -92 -41 -45 -26 -90 -53 -100 -58 -10 -6 -35 -22 -56 -36 -22 -14 -58 -38
-82 -53 -23 -15 -40 -31 -37 -36 3 -5 0 -7 -7 -5 -22 9 -333 -229 -323 -246 3
-4 0 -11 -6 -15 -8 -5 -9 -3 -4 6 5 8 3 11 -6 8 -8 -3 -13 -11 -11 -17 1 -6
-2 -10 -7 -9 -13 4 -152 -122 -146 -132 3 -5 0 -12 -6 -16 -8 -4 -9 -3 -5 4 4
7 3 12 -1 12 -17 0 -105 -98 -99 -109 4 -6 1 -9 -7 -5 -17 6 -60 -43 -50 -59
3 -6 1 -7 -6 -3 -12 8 -58 -41 -53 -57 1 -5 -1 -6 -6 -3 -14 8 -55 -41 -47
-55 5 -7 4 -10 -3 -5 -41 25 -554 -720 -526 -766 4 -6 3 -8 -3 -5 -18 11 -145
-264 -225 -488 -95 -264 -154 -520 -200 -865 -20 -148 -17 -671 5 -843 53
-424 169 -823 349 -1199 28 -59 56 -104 61 -101 6 3 7 1 3 -5 -9 -14 -5 -20
106 -207 134 -226 360 -534 387 -527 7 1 9 -2 6 -8 -8 -14 34 -62 47 -54 5 3
7 0 6 -8 -2 -7 3 -12 10 -10 8 1 11 -1 8 -6 -3 -5 6 -25 20 -45 23 -34 35 -42
57 -38 5 1 6 -3 3 -8 -8 -12 123 -137 138 -133 6 2 8 0 4 -4 -11 -10 12 -35
25 -27 5 3 7 2 4 -4 -9 -15 49 -67 65 -57 7 4 10 4 6 -1 -11 -11 12 -36 25
-28 5 3 7 1 4 -4 -9 -14 29 -47 44 -37 7 4 10 3 5 -4 -6 -10 10 -26 26 -27 3
0 10 -4 15 -9 5 -5 2 -6 -7 -2 -21 11 32 -36 120 -103 297 -229 633 -423 988
-572 108 -45 320 -122 397 -144 237 -66 479 -122 725 -165 219 -39 612 -58
855 -41 285 20 427 41 775 117 161 34 548 155 657 205 24 10 46 19 49 19 12 0
258 112 339 155 221 116 308 169 297 180 -4 5 -2 5 5 1 16 -9 185 103 176 117
-3 6 -1 7 6 3 7 -4 69 36 154 100 180 136 258 204 250 217 -3 5 -2 7 4 4 14
-9 125 92 117 105 -4 6 -2 8 3 5 12 -7 36 16 28 26 -3 4 -2 5 1 2 19 -14 330
327 317 348 -3 5 -1 7 5 3 17 -10 25 13 10 32 -12 15 -11 16 4 4 15 -12 26 -1
100 100 113 153 140 197 132 210 -4 6 -3 8 3 5 15 -9 157 228 147 244 -4 7 -3
10 3 6 12 -8 46 61 37 75 -4 6 -2 8 4 4 6 -4 30 35 61 99 28 58 51 108 51 111
0 3 13 34 29 68 37 81 110 290 150 431 207 735 181 1551 -72 2270 -75 214
-265 625 -288 625 -5 0 -8 3 -7 8 5 15 -64 122 -74 116 -7 -5 -8 -2 -4 5 11
18 -214 351 -236 351 -4 0 -8 6 -8 13 -1 6 -21 35 -47 62 -25 28 -40 41 -32
30 13 -18 13 -19 -3 -6 -10 7 -16 17 -13 21 7 11 -34 60 -48 57 -6 -1 -12 5
-12 13 0 8 -7 14 -14 12 -7 -1 -9 2 -6 9 9 14 -94 121 -108 112 -6 -3 -7 -1
-4 4 9 15 -29 56 -44 47 -7 -4 -9 -3 -5 4 8 13 -33 54 -47 45 -6 -3 -8 -2 -4
3 8 13 -18 45 -40 48 -10 2 -16 6 -13 9 9 10 -64 78 -78 72 -7 -2 -11 -1 -8 4
8 13 -73 83 -86 75 -6 -4 -8 -3 -5 3 11 18 -295 249 -314 237 -7 -4 -9 -3 -6
3 17 28 -593 375 -626 357 -7 -4 -9 -4 -5 1 9 10 -53 39 -232 110 -326 129
-670 219 -1030 271 -237 34 -729 52 -935 34z m510 -140 c487 -23 939 -117
1377 -286 65 -25 123 -42 129 -38 7 4 9 3 6 -2 -3 -6 60 -41 141 -79 325 -153
627 -345 903 -572 42 -34 80 -59 84 -55 5 4 5 2 2 -4 -7 -11 37 -56 51 -51 4
1 8 -2 8 -7 3 -17 258 -265 267 -259 6 3 7 2 4 -4 -8 -13 22 -55 34 -47 5 3 8
2 7 -3 -5 -14 144 -193 155 -186 6 3 7 1 3 -5 -8 -14 61 -108 76 -104 5 1 7
-2 4 -7 -8 -12 72 -127 86 -123 5 1 6 -2 3 -8 -4 -7 2 -21 12 -33 11 -12 23
-29 26 -37 18 -43 67 -115 77 -112 6 1 9 -2 6 -7 -3 -5 28 -73 69 -152 186
-361 301 -713 369 -1129 65 -398 52 -901 -34 -1296 -6 -28 -12 -62 -14 -75 -2
-13 -6 -31 -9 -39 -3 -8 -13 -44 -22 -80 -26 -103 -110 -350 -150 -440 -20
-46 -33 -90 -30 -99 3 -8 3 -12 -1 -8 -4 4 -43 -64 -86 -151 -95 -187 -124
-237 -237 -405 -47 -71 -90 -136 -96 -144 -5 -9 -22 -30 -38 -47 -15 -17 -25
-37 -22 -44 3 -7 1 -11 -3 -8 -10 6 -168 -183 -164 -197 1 -4 -2 -6 -7 -3 -13
8 -63 -53 -55 -66 4 -6 2 -8 -4 -4 -10 6 -26 -10 -27 -26 0 -3 -4 -10 -9 -15
-5 -5 -6 -3 -2 5 4 6 2 12 -4 12 -7 0 -35 18 -62 40 -28 22 -55 37 -61 33 -6
-3 -7 -1 -3 5 4 6 -6 19 -21 29 -15 10 -64 44 -107 75 -43 32 -83 55 -89 51
-6 -3 -7 -2 -4 4 8 12 -251 186 -265 177 -6 -4 -8 -3 -5 3 8 13 -99 77 -114
67 -8 -4 -9 -3 -5 4 4 6 -4 17 -16 25 -121 74 -169 98 -179 91 -7 -4 -9 -3 -6
3 4 6 -38 34 -98 65 -57 31 -102 51 -99 47 3 -5 -2 -6 -11 -3 -9 4 -14 9 -11
12 9 8 -245 122 -257 115 -6 -4 -7 -1 -2 7 6 10 3 12 -13 8 -12 -4 -20 -3 -17
2 11 17 -401 165 -626 224 -252 66 -472 104 -724 127 -66 6 -121 12 -123 14
-3 3 43 420 54 483 l5 32 186 0 185 0 275 -237 c151 -131 334 -289 406 -350
72 -62 140 -114 151 -114 99 -6 656 -13 656 -7 0 3 -141 136 -312 295 -172
159 -341 315 -375 347 -35 32 -63 62 -63 67 0 5 116 9 263 9 145 0 420 3 611
7 l346 6 7 26 c12 49 -14 261 -43 350 -46 140 -145 266 -265 338 -85 50 -79
52 -132 -42 l-48 -85 -538 0 -537 0 -29 30 c-18 19 -25 34 -19 39 9 9 320 226
890 620 167 116 261 187 253 191 -6 4 -126 11 -265 15 l-253 7 -163 -103 c-90
-56 -344 -218 -566 -360 l-402 -258 -88 -9 c-48 -5 -88 -8 -90 -6 -2 1 4 134
14 294 12 200 22 297 31 305 6 7 38 16 70 20 90 10 305 53 438 86 716 179
1234 510 1440 919 104 207 119 408 48 635 -135 428 -573 762 -1166 890 -245
53 -320 59 -662 59 -314 0 -470 -11 -700 -52 l-40 -8 2 -114 c1 -63 7 -225 13
-360 6 -135 19 -454 30 -710 26 -617 37 -879 55 -1280 8 -184 18 -414 21 -511
l7 -175 -69 7 c-38 5 -90 8 -116 8 -48 1 -120 44 -1121 664 l-48 30 -292 -12
c-160 -6 -292 -13 -294 -15 -2 -2 276 -184 617 -406 341 -221 620 -406 620
-409 0 -29 -32 -31 -561 -31 l-537 0 -47 85 c-43 80 -47 84 -71 75 -48 -19
-141 -89 -197 -150 -111 -119 -167 -283 -167 -488 l0 -109 338 -6 c185 -4 500
-7 700 -7 199 0 362 -3 362 -8 0 -4 -230 -160 -511 -347 -281 -187 -513 -344
-516 -349 -4 -5 123 -7 324 -4 l331 6 433 297 c239 164 464 320 502 347 l67
49 143 -3 142 -3 6 -90 c4 -49 8 -164 10 -255 l4 -165 -160 -7 c-762 -35
-1573 -311 -2370 -806 -131 -82 -403 -264 -473 -318 -25 -19 -51 -34 -58 -34
-20 0 -146 141 -261 292 -28 37 -54 64 -59 60 -4 -4 -4 -1 0 5 4 8 -8 32 -28
59 -20 26 -36 51 -36 56 0 5 -4 7 -8 4 -5 -3 -9 0 -9 7 0 7 -27 55 -60 107
-32 52 -74 123 -93 157 -19 34 -38 59 -44 56 -5 -3 -6 -1 -3 4 4 6 -24 75 -62
154 -37 79 -81 179 -96 221 -16 42 -33 74 -39 71 -5 -3 -6 -2 -3 4 3 5 -10 58
-29 119 -79 249 -129 476 -161 734 -21 170 -24 626 -5 780 56 456 169 849 352
1222 21 44 37 85 33 91 -3 6 -1 7 5 3 7 -4 12 -3 12 2 0 12 135 247 171 299
17 25 27 48 23 55 -4 7 -4 10 1 6 11 -11 68 69 59 83 -4 7 -3 9 4 5 13 -8 43
33 35 48 -3 6 -3 8 2 4 9 -8 21 4 55 52 14 19 49 63 78 98 30 35 50 67 46 74
-4 6 -3 8 4 4 11 -7 79 70 74 85 -1 5 2 8 7 7 11 -4 267 253 263 264 -1 5 1 7
6 4 11 -6 148 113 144 126 -1 5 3 6 9 2 6 -3 14 -2 18 3 3 5 29 27 56 48 28
22 54 46 58 53 4 6 15 12 23 12 9 0 12 5 8 12 -4 6 -3 8 3 5 6 -4 30 8 54 26
24 19 82 59 129 90 47 31 90 60 95 64 6 5 32 19 58 33 27 14 45 30 43 37 -3 7
1 10 9 7 18 -7 98 40 88 51 -5 4 -3 5 4 1 11 -6 226 95 221 105 -2 2 -1 3 1 2
5 -3 84 30 166 68 71 33 77 36 96 38 5 0 7 6 3 13 -4 7 -3 8 4 4 6 -4 76 16
154 43 393 138 808 220 1223 240 215 11 230 11 440 1z m-1200 -90 c-3 -5 -12
-10 -18 -10 -7 0 -6 4 3 10 19 12 23 12 15 0z m-840 -188 c-3 -3 -11 0 -18 7
-9 10 -8 11 6 5 10 -3 15 -9 12 -12z m4525 -478 c0 -8 -19 -13 -24 -6 -3 5 1
9 9 9 8 0 15 -2 15 -3z m-5639 -241 c13 -16 12 -17 -3 -4 -10 7 -18 15 -18 17
0 8 8 3 21 -13z m3628 -109 c511 -67 833 -230 970 -494 52 -99 73 -189 74
-315 1 -78 -4 -116 -21 -173 -58 -187 -159 -352 -301 -492 -190 -188 -422
-309 -751 -394 -111 -28 -350 -69 -358 -61 -7 7 -2 1937 5 1949 8 11 228 0
382 -20z m2637 -334 c0 -12 -4 -16 -9 -11 -5 5 -6 14 -3 20 10 15 12 14 12 -9z
m-3440 -2525 c27 -8 118 -144 150 -225 22 -54 26 -77 25 -163 -2 -114 -20
-164 -93 -254 l-43 -53 -425 1 c-487 1 -633 11 -335 22 489 19 814 75 831 144
15 59 -63 89 -336 127 -202 29 -455 41 -845 41 -537 -1 -927 -32 -1098 -89
l-69 -23 7 46 c10 69 62 185 112 251 45 61 86 97 160 143 l42 26 19 -32 c10
-18 31 -53 46 -79 l27 -48 559 0 560 0 15 24 c38 58 169 124 287 146 54 9 366
5 404 -5z m868 -10 c86 -24 151 -60 202 -111 l45 -44 557 0 557 0 43 80 c28
53 47 78 55 73 101 -59 183 -137 236 -225 27 -46 71 -173 71 -208 l0 -26 -67
22 c-175 59 -559 89 -1118 88 -447 -1 -696 -15 -916 -54 -138 -24 -174 -34
-216 -60 -54 -32 -39 -72 39 -104 92 -39 430 -79 768 -93 299 -11 156 -21
-337 -22 l-421 -1 -41 47 c-89 101 -125 221 -101 337 14 69 86 214 134 270 30
35 40 40 97 47 101 12 345 3 413 -16z m-1305 -410 c271 -23 449 -54 496 -89
16 -12 14 -14 -25 -30 -320 -128 -1910 -128 -2217 1 -30 12 -34 17 -22 28 46
43 343 86 734 105 226 12 816 3 1034 -15z m2541 0 c283 -24 510 -66 510 -95 0
-26 -142 -60 -350 -85 -421 -50 -1195 -47 -1617 6 -226 28 -345 63 -303 89 66
42 357 82 720 100 237 12 823 3 1040 -15z m-4324 -144 c16 -15 105 -40 199
-55 119 -20 394 -46 498 -47 45 0 91 -5 102 -10 13 -6 -86 -8 -275 -4 -162 3
-352 5 -421 5 l-127 0 -6 26 c-7 28 2 94 13 94 4 0 11 -4 17 -9z m4874 -51 l0
-60 -133 0 c-74 0 -264 -3 -423 -6 -206 -4 -285 -3 -274 5 8 6 56 11 105 11
200 0 581 51 666 89 24 11 47 20 52 20 4 1 7 -26 7 -59z m-2033 -816 c476 -68
944 -220 1416 -460 59 -30 130 -68 158 -84 27 -17 52 -30 54 -30 3 0 64 -36
136 -80 72 -44 136 -77 143 -73 6 3 8 2 4 -2 -11 -12 180 -137 195 -129 7 4 9
4 5 -1 -8 -9 14 -28 166 -135 66 -47 124 -83 130 -82 6 2 8 1 4 -3 -10 -10 49
-58 62 -50 23 14 -7 -34 -38 -60 -28 -23 -31 -30 -20 -44 12 -14 11 -14 -4 -2
-16 12 -24 8 -70 -30 -29 -24 -55 -46 -58 -49 -8 -9 -223 -166 -252 -185 -15
-9 -25 -21 -22 -26 3 -5 1 -8 -4 -7 -17 5 -162 -93 -155 -105 3 -6 1 -7 -5 -3
-15 9 -223 -115 -215 -128 3 -5 1 -6 -5 -2 -6 3 -61 -21 -124 -55 -106 -59
-274 -140 -345 -168 -18 -8 -30 -18 -26 -24 3 -5 1 -7 -5 -3 -7 4 -8 17 -2 35
4 16 5 33 2 37 -4 4 -2 4 5 0 23 -13 24 15 4 55 -12 22 -16 37 -10 33 8 -5 9
7 5 42 -4 27 -2 55 3 63 5 8 6 24 1 37 -5 12 -5 24 -1 26 5 2 12 30 16 63 l6
61 -56 1 c-31 1 -60 5 -64 10 -4 4 -13 27 -20 50 -6 24 -23 54 -36 69 -20 22
-27 24 -45 14 -13 -7 -20 -19 -18 -33 5 -34 -30 -34 -57 -1 -20 26 -24 27 -41
14 -15 -12 -16 -12 -9 -1 6 11 4 13 -7 8 -9 -3 -15 0 -15 6 1 36 -5 46 -34 52
-22 5 -41 1 -65 -11 -31 -17 -34 -17 -52 -1 -11 10 -35 17 -57 17 -36 0 -37 1
-22 18 23 25 23 91 0 99 -10 4 -21 12 -26 19 -12 21 -64 42 -90 37 -19 -4 -23
-10 -20 -27 4 -18 -1 -25 -17 -29 -14 -3 -21 -11 -17 -19 7 -20 -40 -21 -73
-1 -24 14 -31 14 -45 3 -24 -20 -123 -13 -156 11 -15 10 -36 19 -48 19 -11 0
-25 9 -31 19 -15 29 -49 37 -64 15 -11 -14 -22 -16 -70 -10 -35 4 -56 2 -56
-4 0 -5 -9 -10 -20 -10 -12 0 -17 -5 -14 -13 3 -8 -2 -20 -11 -27 -8 -7 -15
-19 -15 -27 0 -8 -9 -28 -21 -44 -26 -37 -80 -41 -103 -8 l-14 21 -29 -21
c-27 -20 -98 -37 -88 -21 4 7 -12 18 -40 26 -26 8 -121 21 -126 18 -3 -2 -4 8
-1 21 2 15 0 25 -7 25 -15 0 -14 43 1 58 9 9 8 12 -4 12 -9 0 -19 7 -22 16 -4
11 -15 15 -35 12 -22 -3 -28 -1 -24 10 3 7 -4 20 -15 28 -12 8 -19 21 -15 29
3 9 0 22 -7 30 -17 20 -44 20 -36 0 3 -10 -1 -18 -12 -21 -9 -3 -27 -11 -40
-17 -17 -8 -28 -8 -42 1 -11 6 -33 9 -50 6 -18 -4 -30 -2 -30 4 0 7 -20 10
-54 7 -45 -3 -54 -1 -52 12 3 19 32 36 46 28 7 -4 9 2 5 18 -5 18 -2 28 10 34
14 8 12 13 -15 40 -40 39 -37 64 9 69 43 5 44 7 44 45 0 23 3 27 9 15 11 -20
58 -21 84 -1 29 22 37 18 12 -7 l-23 -23 23 -3 c21 -3 32 -22 12 -22 -5 0 -10
-4 -10 -10 0 -6 9 -6 26 1 33 12 45 2 20 -17 -11 -8 -15 -14 -9 -14 7 0 13
-10 15 -22 l3 -23 22 22 c31 31 90 55 99 41 4 -6 3 -8 -2 -5 -6 3 -16 2 -24
-3 -11 -7 -9 -14 12 -35 16 -16 32 -24 39 -19 8 4 9 3 5 -4 -4 -7 -2 -12 4
-12 6 0 8 -4 5 -10 -3 -5 0 -10 7 -10 8 0 9 -3 3 -8 -20 -14 -14 -42 9 -42 12
0 32 -7 44 -16 13 -9 32 -14 43 -11 10 3 17 2 14 -3 -3 -4 4 -10 15 -13 18 -5
20 -14 21 -104 1 -106 11 -90 24 39 7 63 8 67 33 70 19 2 27 9 28 24 1 12 4
27 8 33 5 8 -3 16 -22 23 -25 10 -30 16 -27 37 3 15 14 107 25 206 65 580 79
695 85 706 5 6 20 8 40 5 28 -6 36 -2 56 23 17 22 27 27 40 21 19 -11 39 6 39
32 0 23 32 23 177 2z m-607 -34 c0 -5 -8 -10 -17 -10 -15 0 -16 2 -3 10 19 12
20 12 20 0z m350 5 c0 -7 -30 -13 -34 -7 -3 4 4 9 15 9 10 1 19 0 19 -2z
m-1020 -31 c0 -8 4 -14 9 -14 4 0 6 -12 3 -27 -5 -25 -3 -26 27 -20 26 5 31 3
31 -12 0 -22 19 -31 65 -31 20 0 35 -6 39 -15 3 -8 13 -15 23 -15 16 0 16 -2
3 -11 -12 -9 -11 -10 5 -6 16 3 20 -1 20 -18 -1 -11 -5 -28 -10 -35 -5 -8 -8
-27 -6 -42 2 -22 -2 -28 -17 -28 -11 0 -29 -11 -39 -24 -14 -19 -30 -25 -80
-29 l-63 -5 0 35 c0 21 -4 32 -10 28 -6 -4 -18 -1 -26 6 -10 8 -34 10 -80 5
-45 -5 -71 -3 -80 5 -9 8 -14 8 -14 1 0 -6 8 -16 18 -21 9 -6 12 -11 6 -11
-18 0 -35 26 -28 43 3 9 23 18 44 22 25 4 40 13 43 25 4 16 13 19 50 17 25 -1
45 -6 44 -12 -1 -5 5 -10 13 -10 8 0 17 11 18 24 3 19 0 22 -13 18 -9 -4 -14
-3 -11 2 3 5 -1 14 -9 21 -8 7 -15 25 -15 41 0 29 -34 74 -48 65 -4 -2 -8 4
-8 15 0 14 11 21 41 27 45 10 55 7 55 -14z m-116 -32 c3 -5 -1 -9 -9 -9 -8 0
-12 4 -9 9 3 4 7 8 9 8 2 0 6 -4 9 -8z m666 1 c0 -5 24 -8 54 -8 30 0 58 3 62
8 4 4 17 7 29 7 20 0 23 -6 29 -77 10 -125 8 -199 -6 -185 -6 6 -13 33 -14 58
-3 43 -20 81 -32 69 -3 -2 -11 3 -17 12 -11 14 -18 15 -51 6 -52 -16 -129 -20
-129 -8 1 9 21 84 30 113 5 13 45 17 45 5z m-300 -114 c7 -11 9 -23 6 -27 -3
-3 -6 0 -6 6 0 6 -7 18 -16 26 -8 9 -11 16 -5 16 6 0 15 -9 21 -21z m2 -62 c3
-14 0 -24 -7 -24 -7 0 -10 10 -7 24 2 13 6 23 7 23 1 0 5 -10 7 -23z m398 13
c8 -5 11 -10 5 -10 -5 0 -17 5 -25 10 -8 5 -10 10 -5 10 6 0 17 -5 25 -10z
m22 -92 c-8 -8 -9 -4 -5 13 4 13 8 18 11 10 2 -7 -1 -18 -6 -23z m-695 -40
c-3 -8 -6 -5 -6 6 -1 11 2 17 5 13 3 -3 4 -12 1 -19z m750 -20 c-3 -8 -6 -5
-6 6 -1 11 2 17 5 13 3 -3 4 -12 1 -19z m-593 -6 c2 -4 -4 -8 -14 -8 -10 0
-16 4 -14 8 3 4 9 8 14 8 5 0 11 -4 14 -8z m-1114 -52 c-8 -5 -19 -10 -25 -10
-5 0 -3 5 5 10 8 5 20 10 25 10 6 0 3 -5 -5 -10z m-60 -16 c0 -12 6 -15 25
-10 21 5 27 2 37 -21 7 -16 18 -36 27 -46 8 -9 17 -34 20 -55 5 -31 11 -37 34
-40 15 -2 27 1 27 7 0 6 9 11 19 11 21 0 54 -37 45 -51 -2 -4 5 -10 16 -14 11
-4 27 -20 36 -36 14 -28 39 -35 39 -11 0 5 2 13 6 16 3 3 5 -5 5 -19 0 -13 -3
-22 -6 -20 -17 10 -7 -65 10 -88 12 -14 20 -41 20 -61 0 -35 1 -36 38 -36 55
0 77 -9 87 -33 6 -14 21 -23 39 -25 15 -2 26 0 23 5 -3 4 8 9 23 10 21 2 31
-3 35 -17 3 -10 12 -21 20 -24 9 -3 15 -18 15 -36 0 -16 5 -30 11 -30 7 0 9
-18 7 -47 -2 -40 0 -48 16 -51 10 -2 16 0 12 6 -11 18 37 0 72 -26 33 -25 34
-25 66 -8 21 11 42 15 59 11 22 -6 32 -1 57 24 17 19 40 33 57 34 26 2 28 0
25 -32 -2 -19 1 -44 7 -55 6 -12 15 -33 21 -48 12 -35 53 -38 85 -8 21 19 55
19 55 0 0 -15 72 -51 91 -45 11 4 17 11 14 16 -4 5 2 6 11 2 11 -4 13 -8 6
-11 -7 -2 -10 -8 -6 -13 3 -5 18 -2 34 6 16 8 47 15 70 15 23 0 39 4 35 9 -3
5 9 9 27 8 18 -1 59 2 91 6 53 8 57 7 57 -11 0 -22 14 -30 47 -27 13 1 21 -1
18 -3 -3 -3 1 -12 8 -21 11 -14 10 -14 -6 -2 -9 8 -20 11 -24 8 -13 -13 -6
-94 12 -140 6 -14 10 -15 21 -6 10 8 11 15 4 24 -8 9 -8 15 0 20 6 4 9 1 8 -5
-5 -20 79 -16 102 5 21 19 48 14 55 -10 3 -8 8 -23 12 -32 3 -10 5 -21 5 -25
-4 -15 18 -8 40 14 20 20 20 22 4 28 -10 3 7 6 38 7 38 1 56 -2 56 -11 0 -6 8
-23 18 -36 22 -32 43 -91 35 -103 -3 -4 4 -11 16 -14 14 -3 21 -13 21 -28 0
-13 7 -30 15 -39 8 -8 15 -21 15 -30 0 -20 32 -37 50 -26 17 11 40 2 40 -16 0
-9 12 -14 35 -14 35 0 35 0 35 -44 0 -30 5 -46 15 -50 8 -3 12 -12 9 -21 -5
-12 3 -15 40 -15 32 0 46 -4 46 -13 0 -8 13 -27 30 -43 22 -21 30 -38 30 -65
0 -23 6 -39 15 -43 10 -4 15 -20 15 -52 0 -33 4 -45 13 -41 19 7 9 -81 -12
-92 -16 -8 -62 -17 -246 -43 -125 -18 -736 -18 -865 0 -362 51 -628 114 -929
221 -63 22 -119 37 -125 34 -6 -3 -8 -3 -4 2 4 4 -52 33 -125 65 -72 31 -187
85 -255 119 -68 34 -128 59 -134 55 -6 -4 -8 -3 -5 3 4 5 -6 16 -21 24 -15 8
-78 44 -140 81 -62 38 -115 68 -118 68 -3 0 -17 9 -31 20 -14 11 -30 17 -37
13 -6 -3 -8 -3 -4 2 4 4 -43 42 -105 84 -140 95 -276 197 -436 326 -68 55
-129 99 -135 97 -6 -1 3 11 21 27 17 16 28 33 25 37 -4 4 -2 4 4 1 12 -7 77
36 69 45 -3 2 1 5 8 5 6 0 57 31 112 69 55 38 150 100 210 138 61 38 121 76
133 84 23 15 24 15 20 -14 -3 -26 0 -29 30 -32 17 -2 32 -7 32 -13 0 -5 14 -9
30 -9 17 0 30 -4 30 -9 0 -5 30 -14 68 -21 37 -6 77 -14 88 -16 17 -4 24 1 32
24 8 24 7 32 -9 46 -19 16 -17 42 2 30 5 -3 20 1 32 8 35 23 56 28 63 16 5 -7
2 -8 -6 -3 -9 5 -11 4 -6 -3 12 -21 26 -13 26 14 0 18 6 28 21 31 12 4 18 11
15 20 -4 9 -1 11 6 7 7 -5 9 1 6 18 -3 19 -1 25 11 24 10 -1 17 9 19 26 2 19
10 28 25 30 12 2 31 17 42 35 21 34 55 44 55 17z m1781 -135 c4 -30 10 -124
13 -210 l7 -156 -26 4 c-14 3 -25 12 -25 20 0 8 -13 19 -30 24 -16 6 -30 14
-30 19 0 4 -13 10 -30 14 -22 4 -30 11 -30 26 0 18 -5 21 -32 18 -26 -2 -38 3
-57 25 -13 16 -30 26 -38 23 -8 -3 -11 -1 -8 5 4 5 1 17 -7 26 -11 14 -11 16
1 8 11 -6 13 -4 9 7 -5 11 -1 14 17 10 18 -3 24 1 27 19 2 16 12 25 35 31 23
6 35 16 39 33 4 15 13 25 25 25 22 0 15 26 -9 34 -13 3 -12 5 3 4 40 -1 86 14
81 28 -3 8 0 11 8 8 8 -3 17 0 21 6 14 23 30 1 36 -51z m-1581 21 c0 -5 -8
-10 -17 -10 -15 0 -16 2 -3 10 19 12 20 12 20 0z m-48 -22 c-9 -9 -15 -9 -24
1 -11 10 -10 11 5 6 10 -5 17 -2 17 6 0 7 3 9 7 6 4 -4 1 -13 -5 -19z m37 -1
c-2 -1 -13 -9 -24 -17 -19 -14 -19 -14 -6 3 7 9 18 17 24 17 6 0 8 -1 6 -3z
m61 -21 c-7 -7 -13 -7 -20 0 -6 6 -3 10 10 10 13 0 16 -4 10 -10z m-590 -30
c0 -3 -4 -8 -10 -11 -5 -3 -10 -1 -10 4 0 6 5 11 10 11 6 0 10 -2 10 -4z m670
-11 c0 -12 -19 -12 -23 0 -4 9 -1 12 9 8 7 -3 14 -7 14 -8z m1250 8 c0 -1 -8
-7 -18 -12 -13 -7 -19 -6 -19 2 0 7 9 13 19 13 10 0 18 -1 18 -3z m-1945 -72
c-3 -12 -10 -21 -15 -21 -4 0 -3 11 3 24 14 29 22 27 12 -3z m1732 -103 c-3
-8 -6 -5 -6 6 -1 11 2 17 5 13 3 -3 4 -12 1 -19z m-1003 -4 c3 -8 2 -12 -4 -9
-6 3 -10 10 -10 16 0 14 7 11 14 -7z m1200 -30 c9 -3 13 -11 9 -17 -4 -7 0 -8
13 -3 15 6 17 5 7 -5 -10 -10 -17 -9 -33 9 -22 23 -21 26 4 16z m-1149 -24 c3
-6 -1 -7 -9 -4 -18 7 -21 14 -7 14 6 0 13 -4 16 -10z m1232 -22 c-3 -8 -6 -5
-6 6 -1 11 2 17 5 13 3 -3 4 -12 1 -19z m-1230 -4 c-3 -3 -12 -4 -19 -1 -8 3
-5 6 6 6 11 1 17 -2 13 -5z m1277 -19 c-7 -18 -14 -18 -34 -4 -13 9 -12 10 2
5 10 -3 20 -1 23 4 9 15 15 12 9 -5z m-14 -29 c0 -3 -4 -8 -10 -11 -5 -3 -10
-1 -10 4 0 6 5 11 10 11 6 0 10 -2 10 -4z m-110 -236 c0 -13 -1 -13 -10 0 -5
8 -10 22 -10 30 0 13 1 13 10 0 5 -8 10 -22 10 -30z m-519 -3 c-10 -9 -11 -8
-5 6 3 10 9 15 12 12 3 -3 0 -11 -7 -18z m-2237 -15 c2 -4 -5 -9 -17 -9 -17
-2 -19 0 -7 7 18 12 18 12 24 2z m2371 -12 c-3 -5 -16 -10 -28 -9 -20 1 -20 2
3 9 14 4 26 8 28 9 2 1 0 -3 -3 -9z m-2195 -39 c0 -5 -7 -12 -16 -15 -14 -5
-15 -4 -4 9 14 17 20 19 20 6z m3155 -5 c7 3 15 1 19 -4 3 -5 -5 -7 -17 -6
-12 1 -26 3 -30 3 -5 1 -5 6 -1 13 6 9 9 9 11 1 3 -7 10 -10 18 -7z m282 -2
c-3 -3 -12 -4 -19 -1 -8 3 -5 6 6 6 11 1 17 -2 13 -5z m2330 -39 c0 -8 -4 -12
-9 -9 -5 3 -6 10 -3 15 9 13 12 11 12 -6z m-1837 -65 c0 -5 -5 -10 -11 -10 -5
0 -7 5 -4 10 3 6 8 10 11 10 2 0 4 -4 4 -10z m170 -34 c0 -6 -4 -5 -9 3 -5 8
-14 10 -22 5 -11 -6 -12 -5 -2 8 7 8 12 17 10 19 -1 2 4 -2 11 -10 6 -8 12
-20 12 -25z m-156 10 c-3 -9 -10 -16 -15 -16 -5 0 -4 9 3 20 14 22 21 20 12
-4z m-1124 -6 c0 -5 -4 -10 -10 -10 -5 0 -10 5 -10 10 0 6 5 10 10 10 6 0 10
-4 10 -10z m1191 -13 c-10 -9 -11 -8 -5 6 3 10 9 15 12 12 3 -3 0 -11 -7 -18z
m159 -67 c0 -5 -2 -10 -4 -10 -3 0 -8 5 -11 10 -3 6 -1 10 4 10 6 0 11 -4 11
-10z m40 0 c0 -5 -2 -10 -4 -10 -3 0 -8 5 -11 10 -3 6 -1 10 4 10 6 0 11 -4
11 -10z m125 -108 c-3 -3 -11 0 -18 7 -9 10 -8 11 6 5 10 -3 15 -9 12 -12z
m-1075 -102 c8 -5 11 -10 5 -10 -5 0 -17 5 -25 10 -8 5 -10 10 -5 10 6 0 17
-5 25 -10z m83 -140 c3 -11 1 -18 -4 -14 -5 3 -9 12 -9 20 0 20 7 17 13 -6z
m1080 0 c3 -11 1 -18 -4 -14 -5 3 -9 12 -9 20 0 20 7 17 13 -6z m-1018 -48
c-3 -3 -11 0 -18 7 -9 10 -8 11 6 5 10 -3 15 -9 12 -12z m105 -76 c0 -2 -8
-10 -17 -17 -16 -13 -17 -12 -4 4 13 16 21 21 21 13z"/>
<path d="M2190 9395 c-52 -46 -94 -90 -92 -96 1 -6 -2 -8 -7 -4 -9 5 -218
-173 -215 -183 1 -2 33 -39 71 -81 39 -42 89 -97 113 -123 23 -26 47 -45 53
-41 5 3 7 1 3 -5 -3 -6 10 -28 30 -49 20 -21 68 -74 107 -118 125 -142 179
-193 197 -190 9 2 17 -3 17 -11 0 -10 -4 -11 -14 -3 -25 22 -13 -7 15 -34 l28
-27 28 29 c15 16 24 31 19 33 -4 3 -3 3 4 2 16 -4 64 35 57 47 -3 5 0 8 8 7 7
-2 12 3 10 10 -1 8 2 11 8 7 11 -7 102 74 95 85 -3 5 0 12 6 16 8 4 9 3 5 -4
-17 -28 12 -7 95 70 l89 81 -21 23 c-12 13 -29 21 -41 19 -16 -4 -18 -2 -8 11
10 11 9 18 -5 34 -18 20 -41 18 -29 -2 4 -6 2 -8 -4 -4 -12 7 -118 -81 -114
-96 1 -5 -1 -7 -6 -5 -4 3 -25 -10 -47 -30 -152 -133 -144 -128 -163 -107
-137 153 -154 175 -143 187 6 8 7 17 3 21 -4 4 0 6 8 4 8 -2 14 3 12 10 -1 8
2 11 7 8 12 -8 162 124 155 136 -3 5 0 7 8 6 7 -2 12 3 10 10 -1 8 2 11 6 8 5
-3 22 5 38 19 l29 25 -50 50 c-27 28 -53 49 -57 48 -22 -9 -137 -122 -131
-131 4 -6 1 -7 -6 -2 -15 9 -93 -63 -84 -78 4 -6 1 -7 -6 -2 -7 4 -22 -2 -35
-14 l-22 -21 -53 60 c-31 35 -58 57 -64 53 -7 -3 -9 -3 -5 2 4 4 2 15 -4 23
-14 16 -20 42 -9 39 5 -1 43 30 87 69 43 40 107 97 142 127 35 31 64 58 65 61
3 6 -85 106 -93 106 -3 0 -48 -38 -100 -85z"/>
<path d="M9312 9327 c-73 -73 -130 -136 -127 -140 3 -4 2 -5 -2 -2 -10 8 -113
-97 -106 -108 3 -6 2 -7 -4 -4 -5 3 -27 -11 -47 -32 -21 -21 -34 -41 -29 -43
4 -3 3 -4 -3 -2 -16 3 -106 -90 -97 -101 5 -4 3 -5 -3 -2 -6 3 -30 -14 -55
-39 l-43 -44 47 -47 47 -47 248 248 c136 136 255 252 264 257 11 6 19 6 23 -1
4 -6 1 -9 -7 -8 -8 2 -12 -4 -10 -16 2 -10 -1 -15 -6 -12 -12 7 -65 -71 -57
-85 4 -5 2 -8 -3 -7 -15 4 -94 -111 -86 -124 4 -6 3 -9 -2 -5 -10 6 -157 -209
-157 -230 0 -7 -3 -11 -5 -8 -3 3 -24 -23 -48 -58 l-42 -62 50 -47 c27 -27 53
-48 56 -48 4 0 18 9 32 20 20 16 21 19 5 14 -11 -4 -17 -4 -13 0 3 4 17 9 30
10 30 4 130 71 120 81 -4 5 -2 5 4 2 6 -4 73 34 149 84 76 50 145 93 152 96 7
3 10 9 7 14 -3 5 -2 9 3 8 21 -4 34 2 27 13 -4 6 -3 8 3 5 5 -3 20 1 32 10 19
12 20 17 10 25 -11 7 -9 8 4 4 10 -3 28 -1 39 5 38 20 8 -12 -199 -215 -111
-109 -200 -203 -196 -209 3 -5 2 -7 -4 -4 -5 3 -29 -13 -52 -37 l-42 -43 47
-47 48 -46 87 87 c48 48 85 91 82 96 -3 6 -2 7 4 4 14 -9 51 34 48 56 -2 9 1
15 6 11 5 -3 6 -11 3 -17 -4 -7 7 1 24 17 17 16 29 34 25 39 -3 6 -2 7 4 4 6
-4 20 4 32 17 12 13 19 26 14 28 -4 3 -3 3 4 2 15 -4 35 20 25 31 -4 5 -2 5 4
2 14 -8 137 116 127 128 -4 4 -3 5 3 2 14 -8 88 59 79 72 -4 7 1 8 11 4 13 -5
16 -3 11 10 -4 10 -2 14 6 11 7 -2 23 6 35 18 l21 23 -79 79 -79 79 -68 -42
c-253 -157 -382 -244 -376 -254 3 -6 1 -7 -5 -3 -6 4 -30 -5 -53 -19 -22 -15
-43 -24 -45 -22 -5 4 46 84 247 392 l98 150 -77 77 c-42 43 -79 78 -82 78 -3
0 -65 -60 -138 -133z m-37 -147 c3 -6 -1 -7 -9 -4 -18 7 -21 14 -7 14 6 0 13
-4 16 -10z m391 -375 c-1 -8 -5 -17 -8 -21 -5 -4 -4 16 1 34 3 9 9 -1 7 -13z
m-625 -212 c13 -16 12 -17 -3 -4 -10 7 -18 15 -18 17 0 8 8 3 21 -13z"/>
<path d="M1229 8246 c-19 -28 -34 -56 -34 -62 0 -7 30 -32 67 -57 49 -33 70
-41 78 -33 8 8 10 7 6 -4 -4 -11 26 -37 106 -90 62 -41 119 -74 125 -74 7 1
10 -2 7 -7 -3 -5 3 -12 13 -16 10 -4 20 -10 23 -14 14 -19 184 -120 195 -115
9 3 12 0 8 -10 -3 -7 0 -14 5 -14 6 0 17 -6 24 -12 7 -7 31 -25 53 -40 31 -22
42 -25 51 -15 6 6 55 77 109 157 54 80 104 153 112 162 9 9 12 23 7 30 -4 7
-4 10 1 6 7 -7 55 51 55 66 0 9 -104 76 -117 76 -7 0 -13 -5 -13 -11 0 -5 5
-7 12 -3 7 4 8 3 4 -5 -4 -6 -11 -9 -15 -7 -4 3 -52 -60 -106 -139 l-98 -145
-32 20 c-17 11 -36 16 -40 12 -5 -4 -6 -2 -2 3 5 10 -105 86 -454 316 l-115
76 -35 -51z m222 -93 c13 -16 12 -17 -3 -4 -10 7 -18 15 -18 17 0 8 8 3 21
-13z m234 -152 c3 -5 2 -12 -3 -15 -5 -3 -9 1 -9 9 0 17 3 19 12 6z m68 -136
c4 -8 3 -16 -1 -19 -4 -3 -9 4 -9 15 -2 23 3 25 10 4z"/>
<path d="M10435 8243 c-11 -2 -85 -19 -165 -38 -80 -19 -273 -64 -430 -100
-157 -36 -291 -67 -297 -70 -9 -3 -7 -14 8 -40 12 -19 25 -35 31 -35 5 0 7 -4
4 -8 -2 -4 3 -17 12 -29 l17 -21 98 25 c53 14 103 23 110 20 6 -3 43 -57 81
-120 38 -64 73 -114 77 -111 5 3 3 -9 -2 -26 -6 -16 -15 -33 -20 -36 -5 -3 -7
-10 -3 -15 3 -5 0 -8 -8 -7 -8 2 -12 -5 -10 -17 2 -14 0 -16 -6 -7 -6 9 -20
-1 -51 -37 l-42 -50 27 -43 c61 -99 44 -100 137 5 287 325 532 611 529 619 -1
5 2 7 7 4 26 -16 18 20 -16 79 -37 63 -44 68 -88 58z m-183 -261 c-49 -53
-105 -115 -125 -137 -20 -21 -38 -37 -40 -35 -13 15 -109 182 -106 184 2 2 78
22 169 45 90 23 166 44 168 46 3 3 9 2 14 -1 5 -3 -31 -49 -80 -102z m173 59
c3 -5 2 -12 -3 -15 -5 -3 -9 1 -9 9 0 17 3 19 12 6z m-115 -185 c0 -2 -8 -10
-17 -17 -16 -13 -17 -12 -4 4 13 16 21 21 21 13z"/>
<path d="M1035 7493 c-99 -14 -225 -80 -217 -112 1 -7 -2 -10 -7 -7 -12 8 -67
-80 -80 -129 -23 -88 -23 -116 0 -188 43 -132 169 -235 379 -308 51 -18 88
-23 175 -23 109 -1 201 16 190 34 -3 6 1 7 9 4 9 -4 34 12 65 41 113 106 147
270 84 403 -32 67 -130 155 -223 200 -129 62 -287 98 -375 85z m127 -154 c135
-29 276 -107 320 -177 35 -56 32 -152 -6 -209 -60 -90 -196 -106 -366 -44
-186 69 -269 180 -227 304 38 111 137 156 279 126z"/>
<path d="M10675 7249 c-143 -43 -296 -89 -340 -103 -44 -13 -122 -37 -172 -52
-63 -19 -93 -32 -93 -42 0 -23 33 -122 40 -122 4 0 86 24 183 53 97 30 181 50
189 46 21 -12 22 -112 1 -151 -9 -18 -16 -37 -14 -43 1 -5 -1 -7 -5 -3 -7 7
-104 -80 -104 -93 0 -4 -34 -40 -75 -80 l-75 -74 26 -80 25 -80 84 79 c47 43
82 83 78 89 -3 5 -1 7 5 4 14 -10 95 83 125 143 l25 50 19 -29 c23 -36 72 -77
107 -91 67 -25 215 0 272 46 10 8 13 12 5 8 -9 -4 -12 -3 -7 4 4 6 12 9 19 6
16 -6 61 51 75 96 15 44 5 109 -37 244 -17 54 -31 105 -31 113 0 8 -4 11 -10
8 -5 -3 -7 0 -5 7 7 17 -28 121 -41 124 -5 1 -126 -33 -269 -77z m182 -119 c3
-11 10 -20 15 -20 5 0 6 -4 3 -10 -3 -5 6 -47 20 -93 29 -97 30 -108 10 -147
-21 -40 -102 -67 -155 -51 -21 6 -42 17 -48 24 -5 6 -28 65 -50 129 l-40 116
87 27 c47 14 97 30 111 35 37 13 41 12 47 -10z m-543 -498 c3 -5 -1 -9 -9 -9
-8 0 -12 4 -9 9 3 4 7 8 9 8 2 0 6 -4 9 -8z"/>
<path d="M692 6244 c-29 -8 -63 -19 -75 -25 -82 -43 -143 -130 -154 -218 -7
-61 4 -157 21 -174 7 -6 12 -16 12 -21 0 -17 47 -71 91 -105 48 -37 154 -83
195 -85 14 -1 24 -4 22 -7 -2 -3 24 -9 58 -13 103 -10 221 -7 282 9 71 19 158
65 152 82 -3 7 1 10 8 7 17 -7 63 48 90 106 31 69 29 180 -5 245 -15 28 -32
49 -38 47 -7 -1 -10 2 -7 7 8 13 -52 64 -105 88 -82 39 -84 39 -112 -12 -44
-78 -44 -81 10 -105 26 -11 62 -35 80 -52 20 -19 36 -27 45 -23 10 6 10 5 1
-5 -7 -8 -8 -22 -2 -43 14 -50 -7 -112 -52 -151 -53 -45 -98 -56 -225 -56
-233 0 -356 63 -371 187 -10 86 31 143 122 174 22 7 41 14 43 15 3 1 -25 134
-29 138 -2 2 -28 -3 -57 -10z m612 -140 c3 -8 2 -12 -4 -9 -6 3 -10 10 -10 16
0 14 7 11 14 -7z"/>
<path d="M11130 6145 c-47 -30 -109 -68 -138 -85 -32 -19 -50 -35 -46 -42 4
-7 3 -8 -5 -4 -10 6 -162 -80 -211 -120 -8 -6 -55 -15 -105 -18 -49 -4 -139
-12 -199 -18 l-108 -11 6 -36 c3 -20 6 -51 6 -70 l0 -34 73 7 c39 3 129 11
198 16 l125 10 110 -46 c60 -25 136 -57 169 -69 33 -13 109 -44 169 -69 l109
-46 -7 77 c-8 87 -14 99 -59 109 -17 3 -38 11 -47 15 -14 8 -220 84 -262 96
-10 3 -18 9 -18 13 0 7 34 33 75 56 47 26 144 84 199 118 33 20 62 36 65 36 7
0 -2 156 -9 164 -3 3 -44 -19 -90 -49z"/>
<path d="M7140 1151 c0 -6 4 -13 10 -16 6 -3 7 1 4 9 -7 18 -14 21 -14 7z"/>
</g>
</svg>
