<?xml version="1.0" ?><svg fill="#FF3860" viewBox="0 0 24 24" xmlns="http://www.w3.org/2000/svg"><defs><style>.cls-1,.cls-2{fill:none;}.cls-2{stroke:#FF3860;stroke-linecap:round;stroke-linejoin:round;}</style></defs><g data-name="Layer 2" id="Layer_2"><g fill="#FF3860" id="Workspace"><rect class="cls-1" height="24" width="24"/><polygon class="cls-2" points="12 20 8 18 8 13 12 15 12 20"/><polyline class="cls-2" points="12 20 16 18 16 13 12 15"/><path class="cls-2" d="M16,13l-3.45-1.72a1,1,0,0,1-.55-.9V9"/><line class="cls-2" x1="8" x2="10" y1="13" y2="12"/><path class="cls-2" d="M12.41,8.81h-.82a1,1,0,0,1-.88-.51L10,7h4l-.71,1.3A1,1,0,0,1,12.41,8.81Z"/><line class="cls-2" x1="10" x2="10" y1="7" y2="4"/><line class="cls-2" x1="14" x2="14" y1="7" y2="4"/><line class="cls-2" x1="8" x2="16" y1="4" y2="4"/></g></g></svg>
