<?xml version="1.0" ?><!DOCTYPE svg  PUBLIC '-//W3C//DTD SVG 1.1//EN'  'http://www.w3.org/Graphics/SVG/1.1/DTD/svg11.dtd'><svg enable-background="new 0 0 128 128" id="Слой_1" fill="#FF3860" version="1.1" viewBox="0 0 128 128" xml:space="preserve" xmlns="http://www.w3.org/2000/svg" xmlns:xlink="http://www.w3.org/1999/xlink"><g><g><path d="M54.6,3L31,11.6V16h24v17H32v4.3l18,8V66h5v60h18V66h5l0-14h4v-4h-4l0-9.2L92.2,37L92,33H73V16h20l0.2-4    L77,10.2L77,3H54.6z M41.2,37H58v25h-4V42.7L41.2,37z M74,62h-4V37h4L74,62z M69,33h-3v33h3v56H59v-6h3v-4h-3v-6h3v-4h-3v-6h3v-4    h-3v-6h3v-4h-3v-6h3v-4h-3v-6h3V33h-3v-7h3v-4h-3v-6h10V33z M73,12l-31.4,0l13.7-5H73L73,12z" fill="#FF3860"/></g></g></svg>
